<svg xmlns="http://www.w3.org/2000/svg" version="1.1" xmlns:xlink="http://www.w3.org/1999/xlink" xmlns:svgjs="http://svgjs.dev/svgjs" width="1000" height="1000" viewBox="0 0 1000 1000"><rect width="1000" height="1000" fill="#000000"></rect><g transform="matrix(0.7,0,0,0.7,150.26363230184836,352.58402127659576)"><svg viewBox="0 0 335 141" data-background-color="#ffffff" preserveAspectRatio="xMidYMid meet" height="420" width="1000" xmlns="http://www.w3.org/2000/svg" xmlns:xlink="http://www.w3.org/1999/xlink"><g id="tight-bounds" transform="matrix(1,0,0,1,-0.12616688731316117,0.19949999999997203)"><svg viewBox="0 0 335.2523337746263 140.60052000000002" height="140.60052000000002" width="335.2523337746263"><g><svg viewBox="0 0 335.2523337746263 140.60052000000002" height="140.60052000000002" width="335.2523337746263"><g><svg viewBox="0 0 335.2523337746263 140.60052000000002" height="140.60052000000002" width="335.2523337746263"><g><path d="M0 140.601v-140.601h335.252v140.601z" fill="#000000" stroke="transparent" stroke-width="0" rx="0%" data-fill-palette-color="tertiary"></path><path d="M3.283 137.317v-134.034h328.686v134.034z" fill="#ffffff" stroke="transparent" stroke-width="0" rx="0%" data-fill-palette-color="quaternary"></path><path d="M9.85 130.751v-120.901h315.552v120.901z" fill="#000000" stroke="transparent" stroke-width="0" data-fill-palette-color="tertiary"></path></g><g transform="matrix(1,0,0,1,19.69974,19.69974)"><svg viewBox="0 0 295.85285377462634 101.20104000000002" height="101.20104000000002" width="295.85285377462634"><g><svg viewBox="0 0 295.85285377462634 101.20104000000002" height="101.20104000000002" width="295.85285377462634"><g transform="matrix(1,0,0,1,0,0)"><svg width="295.85285377462634" viewBox="2 -35.29999923706055 104.64833068847656 35.79999923706055" height="101.20104000000002" data-palette-color="#ffffff"><path d="M7.85 0L2.25 0Q2 0 2-0.25L2-0.25 2.1-34.6Q2.1-34.8 2.3-34.8L2.3-34.8 11.9-34.8Q16.5-34.8 19.18-32 21.85-29.2 21.85-24.4L21.85-24.4Q21.85-20.85 20.45-18.25 19.05-15.65 16.8-14.25 14.55-12.85 11.9-12.85L11.9-12.85 8.1-12.85 8.1-0.25Q8.1 0 7.85 0L7.85 0ZM8.1-28.8L8.1-18.9 11.9-18.9Q13.5-18.9 14.68-20.43 15.85-21.95 15.85-24.4L15.85-24.4Q15.85-26.35 14.8-27.6 13.75-28.85 11.9-28.85L11.9-28.85 8.1-28.8ZM20.65-0.25L20.65-0.25 26.85-34.6Q26.9-34.8 27.1-34.8L27.1-34.8 34.35-34.8Q34.55-34.8 34.6-34.6L34.6-34.6 40.55-0.25Q40.6 0 40.35 0L40.35 0 34.8 0Q34.6 0 34.55-0.25L34.55-0.25 34-3.9 27.2-3.9 26.65-0.25Q26.6 0 26.4 0L26.4 0 20.85 0Q20.65 0 20.65-0.25ZM30.45-23.3L28.2-9.25 33-9.25 30.95-23.3 30.65-25.15 30.45-23.3ZM49.55 0L43.9 0Q43.7 0 43.7-0.25L43.7-0.25 43.8-34.6Q43.8-34.8 44-34.8L44-34.8 54.1-34.8Q56.8-34.8 59.07-33.48 61.35-32.15 62.7-29.93 64.05-27.7 64.05-24.9L64.05-24.9Q64.05-23.05 63.5-21.58 62.95-20.1 62.2-19.07 61.45-18.05 60.85-17.55L60.85-17.55Q63.55-14.55 63.55-10.5L63.55-10.5 63.6-0.25Q63.6 0 63.35 0L63.35 0 57.7 0Q57.5 0 57.5-0.15L57.5-0.15 57.5-10.5Q57.5-12.3 56.22-13.63 54.95-14.95 53.1-14.95L53.1-14.95 49.8-14.95 49.75-0.25Q49.75 0 49.55 0L49.55 0ZM49.8-28.8L49.8-20.95 54.1-20.95Q55.65-20.95 56.85-22.1 58.05-23.25 58.05-24.9L58.05-24.9Q58.05-26.5 56.87-27.65 55.7-28.8 54.1-28.8L54.1-28.8 49.8-28.8ZM76.14 0.5L76.14 0.5Q73.44 0.5 71.22-0.88 68.99-2.25 67.67-4.53 66.34-6.8 66.34-9.55L66.34-9.55 66.34-11.85Q66.34-12.1 66.59-12.1L66.59-12.1 72.19-12.1Q72.39-12.1 72.39-11.85L72.39-11.85 72.39-9.55Q72.39-7.9 73.49-6.73 74.59-5.55 76.14-5.55L76.14-5.55Q77.69-5.55 78.79-6.75 79.89-7.95 79.89-9.55L79.89-9.55Q79.89-11.4 77.49-12.75L77.49-12.75Q76.69-13.2 74.99-14.15 73.29-15.1 71.79-15.95L71.79-15.95Q69.04-17.55 67.72-19.98 66.39-22.4 66.39-25.45L66.39-25.45Q66.39-28.25 67.74-30.48 69.09-32.7 71.32-34 73.54-35.3 76.14-35.3L76.14-35.3Q78.79-35.3 81.02-33.98 83.24-32.65 84.57-30.43 85.89-28.2 85.89-25.45L85.89-25.45 85.89-21.35Q85.89-21.15 85.69-21.15L85.69-21.15 80.09-21.15Q79.89-21.15 79.89-21.35L79.89-21.35 79.84-25.45Q79.84-27.2 78.74-28.3 77.64-29.4 76.14-29.4L76.14-29.4Q74.59-29.4 73.49-28.23 72.39-27.05 72.39-25.45L72.39-25.45Q72.39-23.8 73.09-22.7 73.79-21.6 75.64-20.6L75.64-20.6Q75.89-20.45 76.62-20.08 77.34-19.7 78.19-19.23 79.04-18.75 79.72-18.4 80.39-18.05 80.54-17.95L80.54-17.95Q83.04-16.55 84.49-14.53 85.94-12.5 85.94-9.55L85.94-9.55Q85.94-6.7 84.62-4.42 83.29-2.15 81.07-0.83 78.84 0.5 76.14 0.5ZM86.74-0.25L86.74-0.25 92.94-34.6Q92.99-34.8 93.19-34.8L93.19-34.8 100.44-34.8Q100.64-34.8 100.69-34.6L100.69-34.6 106.64-0.25Q106.69 0 106.44 0L106.44 0 100.89 0Q100.69 0 100.64-0.25L100.64-0.25 100.09-3.9 93.29-3.9 92.74-0.25Q92.69 0 92.49 0L92.49 0 86.94 0Q86.74 0 86.74-0.25ZM96.54-23.3L94.29-9.25 99.09-9.25 97.04-23.3 96.74-25.15 96.54-23.3Z" opacity="1" transform="matrix(1,0,0,1,0,0)" fill="#ffffff" class="undefined-text-0" data-fill-palette-color="quaternary" id="text-0"></path></svg></g></svg></g></svg></g></svg></g><g></g></svg></g><defs></defs></svg><rect width="335.2523337746263" height="140.60052000000002" fill="none" stroke="none" visibility="hidden"></rect></g></svg></g></svg>